PathFileType	4	(X/Y/Z)	C:/Users/opensim2020/Desktop/walking_exp_matlab/subject03_walking09_straight_03.trc	
DataRate	CameraRate	NumFrames	NumMarkers	Units	OrigDataRate	OrigDataStartFrame	OrigNumFrames	
100.00	100.00	4	47	mm	100.00	2939	383	
Frame#	Time	LFHD			RFHD			LBHD			RBHD			C7			T10			CLAV			STRN			RBAK			LSHO			LUPA			LELB			LFRM			LWRA			LWRB			LFIN			RSHO			RUPA			RELB			RFRM			RWRA			RWRB			RFIN			LASI			RASI			LPSI			RPSI			LTHI			LKNE			LTIB			LANK			LHEE			LTOE			RTHI			RKNE			RTIB			RANK			RHEE			RTOE			*39			*40			*41			*42			*43			*44			*45			*46			
		X1	Y1	Z1	X2	Y2	Z2	X3	Y3	Z3	X4	Y4	Z4	X5	Y5	Z5	X6	Y6	Z6	X7	Y7	Z7	X8	Y8	Z8	X9	Y9	Z9	X10	Y10	Z10	X11	Y11	Z11	X12	Y12	Z12	X13	Y13	Z13	X14	Y14	Z14	X15	Y15	Z15	X16	Y16	Z16	X17	Y17	Z17	X18	Y18	Z18	X19	Y19	Z19	X20	Y20	Z20	X21	Y21	Z21	X22	Y22	Z22	X23	Y23	Z23	X24	Y24	Z24	X25	Y25	Z25	X26	Y26	Z26	X27	Y27	Z27	X28	Y28	Z28	X29	Y29	Z29	X30	Y30	Z30	X31	Y31	Z31	X32	Y32	Z32	X33	Y33	Z33	X34	Y34	Z34	X35	Y35	Z35	X36	Y36	Z36	X37	Y37	Z37	X38	Y38	Z38	X39	Y39	Z39	X40	Y40	Z40	X41	Y41	Z41	X42	Y42	Z42	X43	Y43	Z43	X44	Y44	Z44	X45	Y45	Z45	X46	Y46	Z46	X47	Y47	Z47	

144	1.430	-1045.31152	21.42159	1623.17651	-912.83496	3.94420	1623.49011	-1058.00854	-100.26646	1566.16028	-927.57892	-112.45625	1566.46033	-994.83813	-130.45685	1415.39319	-990.28070	-173.67313	1104.42944	-996.22461	-11.07812	1335.14331	-999.92401	25.12607	1168.20947	-890.64661	-185.33302	1246.39502	-1151.72498	-59.67389	1370.93958	-1220.41040	-86.79878	1173.44189	-1234.00330	-88.80692	1050.84412	-1237.58411	-59.05597	924.28876	-1210.43628	-28.95808	808.23090	-1255.70593	-61.82000	811.18182	-1247.93579	-39.88184	729.30719	-835.79102	-47.28236	1363.75610	-756.30652	-16.31790	1147.57544	-742.07739	21.16817	1041.37000	-740.20099	64.90093	911.54755	-778.38275	107.79739	822.30725	-729.63232	85.45457	814.29297	-740.30420	121.93596	749.93622	-1106.89539	-5.73812	938.54950	-869.60706	-8.91294	936.98645	-1062.60217	-169.85498	957.38068	-912.51508	-168.98436	970.52454	-1157.44373	20.90067	645.45886	-1122.30103	86.09496	480.01703	-1125.75903	32.48546	289.91879	-1089.56836	3.32924	81.64019	-1052.09399	-41.15652	47.39984	-1061.99097	144.41612	39.76946	-838.47443	-84.82544	643.53662	-875.60236	-89.82749	463.85455	-876.12292	-156.45998	283.68286	-929.69623	-208.59160	74.21914	-981.20367	-254.02164	45.91808	-940.64355	-68.64748	31.03453	-1005.45233	-73.00211	1671.23145																					 
145	1.440	-1045.45801	28.92425	1622.54883	-913.05298	11.44105	1622.69067	-1058.26294	-92.70605	1565.43176	-927.85419	-104.88209	1565.60596	-994.97418	-122.82919	1414.78821	-990.62103	-166.49690	1103.90991	-996.62201	-3.49467	1334.44556	-1000.17627	32.38918	1167.43347	-890.55426	-177.79886	1246.07544	-1152.01318	-52.68662	1370.22949	-1220.45227	-81.00466	1172.76563	-1233.81592	-83.33290	1050.17883	-1237.44360	-53.60712	923.60712	-1210.24756	-23.29510	807.62842	-1255.30225	-56.46933	810.47186	-1247.68018	-34.33646	728.72809	-836.15039	-39.36893	1363.29590	-756.21985	-7.84464	1147.39990	-741.95001	30.17210	1041.47717	-740.56873	75.31902	912.15662	-779.06897	119.13660	823.59839	-730.34644	96.93044	815.03784	-741.28235	134.30042	751.31915	-1106.74622	1.81965	937.76929	-869.15369	-2.68188	936.35529	-1062.94727	-162.39235	956.53070	-912.87659	-162.13869	969.86633	-1157.28015	26.87241	644.01080	-1120.88904	92.81198	479.01300	-1124.75916	47.70135	287.30435	-1088.78601	29.31633	77.71795	-1051.11865	-13.83926	42.37808	-1060.48987	172.21655	40.35559	-838.42096	-80.11840	643.26129	-875.42273	-86.75174	463.66281	-876.13159	-154.98816	283.96310	-929.86420	-208.39856	74.80212	-981.46851	-253.66026	46.60714	-940.73663	-68.70325	30.94119	-1005.61798	-65.51991	1670.52075																					 
146	1.450	-1045.75220	36.54549	1621.88953	-913.31378	19.02871	1621.96338	-1058.58313	-85.07679	1564.72241	-928.15704	-97.33150	1564.78882	-995.15399	-115.21041	1414.19458	-991.00629	-159.17654	1103.33667	-997.00439	4.09251	1333.72498	-1000.47894	39.68011	1166.59875	-890.55566	-170.23721	1245.72644	-1152.34729	-45.58889	1369.55518	-1220.89063	-74.91130	1172.26404	-1233.51184	-77.51007	1049.46960	-1237.22754	-47.95371	922.89551	-1210.07458	-17.46500	806.94934	-1254.74585	-50.90969	809.68500	-1247.46509	-28.57055	728.13623	-836.55573	-31.36131	1362.74744	-756.46301	0.59209	1147.18420	-741.88208	39.01840	1041.48547	-740.97430	85.54373	912.63953	-779.87939	130.19972	824.68976	-731.16364	108.16885	815.71948	-742.35419	146.41939	752.60321	-1106.76904	9.48427	936.93231	-869.13995	4.15434	935.78229	-1063.42029	-154.85544	955.68475	-913.32281	-155.21869	969.18243	-1157.14185	32.70806	642.31946	-1119.55884	99.02340	477.38010	-1123.75146	62.58245	285.04529	-1087.72986	55.08414	74.39388	-1050.89893	13.65025	37.87560	-1059.06885	199.28500	41.06499	-838.35504	-75.29787	643.02350	-875.25702	-83.52240	463.47922	-876.19318	-153.35139	284.26572	-930.03906	-208.36591	75.37932	-981.68237	-253.71170	47.70875	-940.65588	-68.64372	30.87459	-1005.79651	-57.99262	1669.74207																					 
147	1.460	-1046.02795	44.10142	1621.18848	-913.59521	26.62612	1621.15698	-1058.95032	-77.40852	1563.94141	-928.55670	-89.66676	1563.95435	-995.42249	-107.56706	1413.54517	-991.42444	-151.94452	1102.70813	-997.47565	11.73633	1332.98621	-1000.75702	47.10286	1165.82288	-890.57465	-162.71512	1245.35828	-1152.76025	-38.36839	1368.84766	-1220.64355	-68.68941	1171.39319	-1233.51880	-71.80092	1048.76892	-1237.09583	-42.20576	922.10931	-1209.92346	-11.56694	806.23920	-1254.34290	-45.27710	808.94232	-1247.20276	-22.77810	727.44086	-836.97632	-23.46259	1362.10938	-756.52631	8.89180	1146.84497	-741.93457	47.80972	1041.35889	-741.46674	95.49860	913.00586	-780.80969	141.10388	825.78827	-732.15198	119.20597	816.26642	-743.60638	158.22018	753.73309	-1106.73254	17.18780	936.00812	-869.07825	10.99660	935.14154	-1063.84741	-147.33577	954.86334	-913.78955	-148.23436	968.57495	-1157.16370	38.47595	640.48743	-1117.91736	105.16290	476.21524	-1122.75134	76.96147	283.16946	-1087.58960	79.70125	72.25479	-1050.41504	39.56313	34.96288	-1057.68164	225.33521	42.04480	-838.25458	-70.30833	642.78046	-875.07068	-80.03694	463.37247	-876.18658	-151.61618	284.63257	-930.07397	-208.14255	76.08598	-981.87292	-253.49991	48.65831	-940.44836	-68.56768	30.86678	-1006.30432	-50.41170	1668.99951																					 
